# xmcd
# Track frame offsets:
# 150
# 34949
# 61702
# 93822
# 119708
# 132076
# 167793
# 192990
# 224655
#
# Disc length: 3392 seconds
# Revision: 1
# Processed by: cddbd v1.5.1PL2 Copyright (c) Steve Scherf et al.
# Submitted via: VisiTrax 2.9.10.228 - For more info visit www.synapsa.com
#
DISCID=810d3e09
DTITLE=Getz, Stan - Stan Getz Plays for Lovers
DYEAR=2006
DGENRE=Jazz
TTITLE0=Easy Living
TTITLE1=How long has this been going on?
TTITLE2=Spring is Here
TTITLE3=For All We Know
TTITLE4=My old Flame
TTITLE5=Lover Man (oh, where can you be?)
TTITLE6=But Beautiful
TTITLE7=Close enough for Love
TTITLE8=A time for Love
EXTD=Credits: \n  Jim McNeely Piano  \n  Scott LaFaro Bass  \n  Eddie Gome
EXTD=z Bass  \n  Vince Guaraldi Piano  \n  Bob Weinstock Producer  \n  Perc
EXTD=y Heath Bass  \n  Richard S. Ginell Liner Notes  \n  Eddie Duran Guita
EXTD=r  \n  Don Lamond Drums  \n  Cal Tjader Vibraphone  \n  Marty Morell D
EXTD=rums  \n  Marc Johnson Bass  \n  Bill Evans Piano  \n  Tony Aless Pian
EXTD=o  \n  Lou Levy Piano  \n  Billy Hart Drums  \n  Victor Lewis Drum
EXTD=s  \n  Monty Budwig Bass
EXTT0=
EXTT1=
EXTT2=
EXTT3=
EXTT4=
EXTT5=
EXTT6=
EXTT7=
EXTT8=
PLAYORDER=
